<svg xmlns="http://www.w3.org/2000/svg" xmlns:xlink="http://www.w3.org/1999/xlink" viewBox="0 0 600 231" id="el_bpzD1Ghny"><style>@-webkit-keyframes el_CdiNYz6VUkz_D8V022_WS_Animation{0%{-webkit-transform: rotate(0deg);transform: rotate(0deg);}100%{-webkit-transform: rotate(360deg);transform: rotate(360deg);}}@keyframes el_CdiNYz6VUkz_D8V022_WS_Animation{0%{-webkit-transform: rotate(0deg);transform: rotate(0deg);}100%{-webkit-transform: rotate(360deg);transform: rotate(360deg);}}#el_bpzD1Ghny *{-webkit-animation-duration: 4s;animation-duration: 4s;-webkit-animation-iteration-count: infinite;animation-iteration-count: infinite;-webkit-animation-timing-function: cubic-bezier(0, 0, 1, 1);animation-timing-function: cubic-bezier(0, 0, 1, 1);}#el_4KT79wFE9A{opacity: 0.95;fill: url(#linear-gradient);}#el_tCj4iZbQkt{fill: #36c;}#el_yLrviKQmID{fill: #36c;}#el_mcEp-V4L8w{fill: #36c;}#el_wRsg3SQrpV{fill: #fff;visibility: hidden;}#el_tQjoqfOXEc{fill: #36c;}#el__y-uYQE_A2{fill: #36c;}#el_9w5_uVn6KJ{fill: #36c;}#el_fGvqKtrK-U{fill: #36c;}#el_l35WObZjCI{fill: #36c;}#el_3YbDJxggef{fill: #36c;}#el_DYPTNEcsiz{fill: #36c;}#el_CAWBhyLFdO{fill: #36c;}#el_ON2I0DH1yX{fill: #36c;opacity: 0;}#el_eZjZmQ_6PwS{fill: #36c;opacity: 0;}#el_CdiNYz6VUkz{fill: #36c;}#el_CdiNYz6VUkz_D8V022_WS{-webkit-animation-name: el_CdiNYz6VUkz_D8V022_WS_Animation;animation-name: el_CdiNYz6VUkz_D8V022_WS_Animation;-webkit-transform-origin: 50% 50%;transform-origin: 50% 50%;transform-box: fill-box;-webkit-transform: rotate(0deg);transform: rotate(0deg);}</style><defs><linearGradient id="linear-gradient" x1="299.98" y1="152.83" x2="299.98" y2="78.89" gradientUnits="userSpaceOnUse"><stop offset="0" stop-color="#369"/><stop offset="1" stop-color="#36c"/></linearGradient></defs><title>Skyline-01</title><g id="el_7R2sEE8FUO" data-name="Layer 1"><path d="M0,108.56,74.92,71.85a29.78,29.78,0,0,1,29.55.85l76.42,24.57a11.25,11.25,0,0,0,6.8,1.59c16-1.45,80.35-7.24,87.88-7.24,8.62,0,27.9,6.22,31.18,7.56s10.25,1,14.36,0c3.44-.84,19.58.36,24.69.76a11,11,0,0,0,3.09-.19c6-1.26,28.1-5.72,33.75-5.32,6.56.47,25.43,3.77,31.58,5.64s17.64-2.81,27.9,0,16.41,3.74,22.56,3.74,20.92.47,24.61,0S600,104,600,104V231.13H0Z" id="el_4KT79wFE9A"/><polygon points="187.96 98.83 190.1 92.11 193.07 98.37 187.96 98.83" id="el_tCj4iZbQkt"/><polygon points="195.89 98.12 196.41 94.41 198.02 97.93 195.89 98.12" id="el_yLrviKQmID"/><polygon points="239.69 94.28 241.15 89.56 243.13 93.99 239.69 94.28" id="el_mcEp-V4L8w"/><polygon points="243.3 93.89 243.83 91.18 245.23 93.73 243.3 93.89" id="el_wRsg3SQrpV"/><polygon points="364.31 96.75 365.78 91.28 368 96.09 364.31 96.75" id="el_tQjoqfOXEc"/><polygon points="368.43 96.04 370.47 84.82 374.38 95.11 368.43 96.04" id="el__y-uYQE_A2"/><polygon points="379.37 94.53 381.2 88.57 383.39 94.5 379.37 94.53" id="el_9w5_uVn6KJ"/><polygon points="384.84 94.64 386.25 90.81 386.98 94.9 384.84 94.64" id="el_fGvqKtrK-U"/><polygon points="428.43 99.51 430.1 94.15 431.93 99.22 428.43 99.51" id="el_l35WObZjCI"/><polygon points="434.06 99.15 435.94 89.15 437.81 99.3 434.06 99.15" id="el_3YbDJxggef"/><polygon points="469.89 103.86 471.93 98.57 473.44 103.92 469.89 103.86" id="el_DYPTNEcsiz"/><polygon points="488.23 95.19 486.2 91.75 484.17 95.19 483.85 103.99 486.2 103.99 488.54 103.99 488.23 95.19" id="el_CAWBhyLFdO"/><rect x="592.81" width="7.19" height="7.19" id="el_ON2I0DH1yX"/><rect width="7.19" height="7.19" id="el_eZjZmQ_6PwS"/></g><g id="el_JOZ89ZzaB_Y" data-name="Layer 2"><g id="el_CdiNYz6VUkz_D8V022_WS" data-animator-group="true" data-animator-type="1"><polygon points="493.07 94.2 486.82 94.51 487.13 88.26 485.26 88.26 485.57 94.51 479.32 94.2 479.32 96.07 485.57 95.76 485.26 102.01 487.13 102.01 486.82 95.76 493.07 96.07 493.07 94.2" id="el_CdiNYz6VUkz"/></g></g><script>(function(){var a=document.querySelector('#el_bpzD1Ghny'),b=a.querySelectorAll('style'),c=function(d){b.forEach(function(f){var g=f.textContent;g&amp;&amp;(f.textContent=g.replace(/transform-box:[^;\r\n]*/gi,'transform-box: '+d))})};c('initial'),window.requestAnimationFrame(function(){return c('fill-box')})})();</script></svg>